<?xml version="1.0" standalone="no"?>
<!DOCTYPE svg PUBLIC "-//W3C//DTD SVG 20010904//EN"
 "http://www.w3.org/TR/2001/REC-SVG-20010904/DTD/svg10.dtd">
<svg version="1.0" xmlns="http://www.w3.org/2000/svg"
 width="512.000000pt" height="512.000000pt" viewBox="0 0 512.000000 512.000000"
 preserveAspectRatio="xMidYMid meet">
<metadata>
Created by potrace 1.11, written by Peter Selinger 2001-2013
</metadata>
<g transform="translate(0.000000,512.000000) scale(0.100000,-0.100000)"
fill="#000000" stroke="none">
<path d="M2523 5110 c-36 -14 -46 -48 -48 -160 -2 -58 -3 -109 -4 -115 -1 -6
-135 -10 -379 -10 -291 -1 -386 -4 -417 -14 -107 -37 -194 -121 -236 -228 -22
-58 -22 -59 -24 -763 -1 -404 3 -717 8 -733 15 -46 38 -52 222 -53 94 -1 177
-3 186 -3 14 -1 16 -14 15 -83 l-1 -83 -193 -5 c-246 -6 -233 3 -236 -175 l-1
-80 -72 -3 -72 -3 1 99 c0 106 -9 133 -49 151 -14 7 -96 11 -199 11 l-176 0
-29 -29 -29 -29 0 -870 0 -871 24 -28 24 -28 177 -3 c186 -3 220 2 243 39 10
15 13 142 14 535 l1 515 71 -3 71 -3 1 -345 c0 -190 4 -355 8 -368 13 -40 46
-49 173 -51 l53 -1 -3 -377 -2 -377 -69 -2 c-62 -1 -73 -5 -93 -28 -16 -19
-23 -40 -24 -69 -2 -200 0 -399 6 -416 15 -48 37 -51 437 -51 342 0 375 2 396
18 33 26 38 62 36 290 l-1 203 -26 26 c-23 23 -34 26 -94 27 l-69 1 0 377 0
378 30 1 c17 0 204 0 416 0 l385 1 0 -379 0 -378 -68 -1 c-59 -1 -72 -4 -94
-26 l-26 -26 -1 -211 c0 -116 2 -224 7 -241 15 -58 28 -60 431 -60 238 0 373
4 389 11 43 19 46 38 48 236 1 266 2 259 -23 288 -20 22 -33 27 -88 30 -36 2
-68 4 -72 4 -4 1 -7 170 -7 376 l0 375 80 1 c43 1 82 2 87 3 23 5 52 29 58 48
4 13 9 176 10 363 1 187 2 343 3 347 0 3 32 6 70 7 l69 0 0 -510 c0 -383 3
-517 12 -534 21 -39 51 -45 235 -45 169 0 175 1 202 24 l28 24 3 877 2 876
-29 30 -29 29 -176 0 c-183 0 -215 -6 -235 -44 -7 -12 -13 -64 -14 -116 l-2
-95 -71 -3 -70 -3 1 85 c2 100 -11 146 -45 163 -17 9 -81 13 -207 13 l-181 0
1 85 c1 49 6 85 12 86 5 0 89 1 185 2 197 3 215 7 228 65 5 20 8 348 7 727 -2
752 0 735 -60 830 -52 82 -140 142 -240 163 -22 5 -197 8 -390 7 -192 0 -355
1 -360 2 -7 2 -10 43 -10 106 1 56 -3 114 -8 130 -14 43 -68 65 -114 47z"/>
</g>
</svg>
